<svg width="79" height="75" viewBox="0 0 79 75" fill="none" xmlns="http://www.w3.org/2000/svg">
<path d="M75.2176 20.5806C74.3563 19.6698 73.6084 18.3693 73.4199 17.1539C72.4241 10.7182 69.4109 5.83231 64.1936 2.84326C64.1412 3.54307 64.1978 4.24429 64.4868 4.94693C64.5746 5.16084 64.5761 5.38749 64.5916 5.61557C64.6526 6.50237 64.1227 7.15826 63.7332 7.86939C63.294 8.75478 62.7515 9.57357 62.148 10.3555C62.0531 10.5015 61.9652 10.6516 61.8618 10.7904C61.1351 11.7707 60.4056 12.7482 59.6774 13.7257C59.5499 14.2456 59.6972 14.6975 60.0188 15.1069C60.5373 15.4738 61.1479 15.6508 61.7131 15.9214C62.7132 16.4002 62.9314 17.0986 62.3506 18.0605C62.2401 18.2772 62.1565 18.5138 62.012 18.7065C61.6111 19.2391 61.7258 19.7052 62.1423 20.1542C62.3817 20.32 62.6211 20.4857 62.8818 20.667C62.794 20.7265 62.7118 20.786 62.6254 20.8399C61.7712 21.3754 61.6833 21.8938 62.3321 22.68C62.6325 23.0441 62.9314 23.4068 63.1864 23.8077C63.6595 24.5514 63.8564 25.3249 63.6 26.2017C63.4484 26.7188 63.3719 27.2571 63.2614 27.7869C63.2685 27.8918 63.2827 27.9966 63.2827 28.1014C63.277 29.7263 63.77 30.3411 65.3807 30.6527C66.6556 30.8992 67.9348 30.7859 69.214 30.6584C70.5017 30.5309 71.7781 30.2433 73.0899 30.4884C75.314 30.9035 76.8566 32.602 76.6895 34.615C76.6101 35.574 76.5082 36.5331 76.3495 37.4836C76.9756 36.6337 77.5253 35.6704 77.9942 34.5937C80.061 29.8467 78.8484 24.4225 75.2176 20.5806Z" fill="#7AB7E4"/>
<path d="M30.2048 33.6277H19.8027C18.7955 33.6277 17.9795 34.4437 17.9795 35.4509V45.853C17.9795 46.8602 18.7955 47.6762 19.8027 47.6762H30.2048C31.212 47.6762 32.028 46.8602 32.028 45.853V35.4509C32.028 34.4437 31.212 33.6277 30.2048 33.6277Z" fill="#7AB7E4"/>
<path d="M14.5827 32.031H21.8272C22.8345 32.031 23.6504 31.2151 23.6504 30.2079V22.9633C23.6504 21.9561 22.8345 21.1401 21.8272 21.1401H14.5827C13.5755 21.1401 12.7595 21.9561 12.7595 22.9633V30.2079C12.7595 31.2151 13.5755 32.031 14.5827 32.031Z" fill="#7AB7E4"/>
<path d="M11.5042 29.9204V25.9709C11.5042 24.9637 10.6882 24.1477 9.68101 24.1477H5.7315C4.72429 24.1477 3.90833 24.9637 3.90833 25.9709V29.9204C3.90833 30.9276 4.72429 31.7436 5.7315 31.7436H9.68101C10.6882 31.7436 11.5042 30.9276 11.5042 29.9204Z" fill="#7AB7E4"/>
<path d="M16.4526 38.4228V35.5925C16.4526 34.5853 15.6366 33.7693 14.6294 33.7693H11.799C10.7918 33.7693 9.97583 34.5853 9.97583 35.5925V38.4228C9.97583 39.4301 10.7918 40.246 11.799 40.246H14.6294C15.6366 40.246 16.4526 39.4301 16.4526 38.4228Z" fill="#7AB7E4"/>
<path d="M14.6434 41.5081H13.8699C12.8627 41.5081 12.0468 42.324 12.0468 43.3312V44.1047C12.0468 45.1119 12.8627 45.9279 13.8699 45.9279H14.6434C15.6506 45.9279 16.4666 45.1119 16.4666 44.1047V43.3312C16.4666 42.3254 15.6506 41.5081 14.6434 41.5081Z" fill="#7AB7E4"/>
<path d="M6.50507 33.5312H1.82318C0.815966 33.5312 0 34.3472 0 35.3544V40.0363C0 41.0435 0.815966 41.8595 1.82318 41.8595H6.50507C7.51228 41.8595 8.32825 41.0435 8.32825 40.0363V35.3544C8.32825 34.3486 7.51087 33.5312 6.50507 33.5312Z" fill="#7AB7E4"/>
<path d="M68.2621 37.5828C67.075 36.8192 65.7561 36.6195 64.3877 36.7583C63.2374 36.8745 62.0942 37.0515 60.9382 37.1167C59.8517 37.179 58.7651 37.1833 57.7197 36.8036C57.68 36.7824 57.6389 36.7625 57.5993 36.7413C56.6487 36.3956 56.2549 35.8432 56.2209 34.8614C56.1968 34.1531 56.2577 33.4505 56.4702 32.7819C56.7961 31.7477 56.7196 30.7859 56.126 29.8722C55.7789 29.4373 55.4219 29.0108 55.0905 28.566C54.8383 28.226 54.7136 27.8507 54.9757 27.4469C55.0465 27.3492 55.1174 27.25 55.1882 27.1523C55.3695 26.9752 55.5679 26.8208 55.7548 26.7046C55.5239 26.6692 55.3525 26.5403 55.2293 26.3405C55.1698 26.3434 55.1174 26.3278 55.0862 26.2598C54.5861 25.7243 54.5677 25.1874 55.0055 24.5868C55.2335 24.2751 55.3879 23.9096 55.565 23.5612C55.5849 23.4082 55.6118 23.19 55.6302 23.037C55.4857 22.3712 55.0805 21.9731 54.4374 21.7649C54.0082 21.6261 53.5945 21.4277 53.195 21.2167C52.5845 20.8951 52.3181 20.1174 52.6057 19.5068C52.7927 19.1102 53.1115 18.8028 53.4047 18.4812C53.8679 17.8494 54.3397 17.2232 54.7944 16.5858C55.8682 15.0771 56.9051 13.5471 57.5908 11.8104C57.6205 11.265 57.5624 10.7352 57.3868 10.2139C57.197 9.64863 57.0822 9.0664 57.1856 8.46576C57.3443 7.53646 57.5525 6.61992 57.8585 5.72745C57.8925 5.57588 57.8982 5.41438 58.0101 5.2883C58.2821 4.1451 58.7297 3.05998 59.1788 1.98052C59.3304 1.61645 59.4848 1.25522 59.6449 0.895397C52.763 -1.20685 46.4477 0.442082 40.8323 5.3223C39.9724 6.07027 38.6918 6.559 37.5443 6.712C31.3552 7.54213 26.6393 10.4646 23.4887 15.9299C22.8484 17.0419 21.8922 18.1086 20.8297 18.8155C20.6881 18.9104 20.5478 19.0068 20.4104 19.1045C20.2433 19.2249 20.3297 19.4898 20.5365 19.4898H24.2976C24.8912 19.4898 25.3714 19.97 25.3714 20.5636V30.3821H25.3487V30.8128C25.3487 31.4559 25.87 31.9772 26.5132 31.9772H32.215C33.0608 31.9772 33.7478 32.6629 33.7478 33.51V42.276C38.094 42.2802 42.4416 42.2646 46.7877 42.2632C53.3013 42.2632 59.8163 42.3043 66.3298 42.2491C67.7804 42.2363 69.1234 42.0493 70.3558 41.6881C70.3374 41.5323 70.3176 41.3779 70.2978 41.222C70.0994 39.7261 69.4605 38.5064 68.2621 37.5828Z" fill="#7AB7E4"/>
<path d="M23.6651 52.4599L19.0427 65.9304L18.8444 52.4599H16.0494L11.427 65.9304L11.2287 52.3947C10.8476 52.365 10.553 52.3508 10.349 52.3508C9.14487 52.3508 7.94217 52.6257 6.73947 53.1767C5.53535 53.7264 4.54939 54.446 3.77876 55.3342C3.00812 56.2224 2.6228 57.1361 2.6228 58.0739C2.6228 58.8375 2.81688 59.3829 3.20645 59.7144C3.5946 60.0444 4.18532 60.2102 4.97863 60.2102C4.97863 60.1804 4.92763 60.06 4.82422 59.8475C4.7208 59.635 4.66981 59.2568 4.66981 58.7142C4.66981 57.5115 4.95596 56.4944 5.52827 55.6657C6.10058 54.837 6.90663 54.2236 7.94926 53.8284L8.30199 68.8614H11.471L15.6528 57.6589L15.9163 68.8614H19.0852L25.2036 52.4642H23.6651V52.4599Z" fill="white"/>
<path d="M38.4563 56.6643C38.9408 56.6643 39.3544 56.4957 39.7001 56.1586C40.0443 55.8214 40.2172 55.4106 40.2172 54.9261C40.2172 54.4416 40.0443 54.028 39.7001 53.6823C39.3559 53.3381 38.9408 53.1653 38.4563 53.1653C37.9718 53.1653 37.561 53.3381 37.2239 53.6823C36.8867 54.0266 36.7181 54.4416 36.7181 54.9261C36.7181 55.4106 36.8867 55.8214 37.2239 56.1586C37.561 56.4957 37.9718 56.6643 38.4563 56.6643Z" fill="white"/>
<path d="M56.1298 57.7423C55.1467 57.7423 54.2882 58.0582 53.5544 58.6886L53.9071 57.0383H50.7382L49.0666 64.9175C48.6997 65.2546 48.1713 65.6215 47.4814 66.0182C47.5395 65.7986 47.5692 65.5195 47.5692 65.1824C47.5692 64.7857 47.5324 64.1482 47.4587 63.2671C47.2831 61.0813 47.1584 59.0484 47.0847 57.17L43.8279 57.6106C43.4469 58.8289 43.0431 59.9622 42.6167 61.0119C42.1903 62.0616 41.6917 63.0999 41.1194 64.1256C40.7964 64.2871 40.5216 64.5477 40.2935 64.9075C40.0668 65.2674 39.9521 65.6895 39.9521 66.1726C39.9521 66.1896 39.9535 66.2051 39.9535 66.2207C39.9238 66.2519 39.8954 66.2845 39.8643 66.3156C39.4974 66.6755 39.1007 66.8554 38.6757 66.8554C38.3528 66.8554 38.1218 66.793 37.983 66.6684C37.8428 66.5437 37.7734 66.3355 37.7734 66.0408C37.7734 65.7915 37.8031 65.5563 37.8612 65.3368L39.4464 57.8528H36.2774L34.7801 64.9175C34.7801 64.9175 34.7801 64.9175 34.7801 64.9189C34.5166 65.579 34.2517 66.0663 33.9882 66.3822C33.7247 66.6981 33.372 66.8554 32.9314 66.8554C32.6084 66.8554 32.3817 66.7746 32.2486 66.6131C32.1168 66.4516 32.0503 66.225 32.0503 65.9303C32.0503 65.681 32.097 65.3396 32.1933 64.9075C32.2882 64.4755 32.3945 64.0307 32.5121 63.5759C32.7019 62.828 32.8492 62.1933 32.9526 61.672C33.0546 61.1507 33.107 60.6775 33.107 60.2526C33.107 59.4168 32.8875 58.792 32.4469 58.3812C32.0063 57.9704 31.4128 57.765 30.6634 57.765C29.6803 57.765 28.8218 58.1758 28.088 58.9974L29.2765 53.4514L26.0197 53.892L22.8281 68.8585H25.9971L27.4944 61.7938C27.6701 61.1918 27.9053 60.7045 28.1985 60.3305C28.4917 59.9565 28.8289 59.7695 29.2114 59.7695C29.7398 59.7695 30.0033 60.1435 30.0033 60.8914C30.0033 61.2003 29.9523 61.604 29.8488 62.1027C29.7454 62.6013 29.6363 63.1084 29.5188 63.6213C29.489 63.7247 29.4338 63.9584 29.353 64.3253C29.2723 64.6922 29.1958 65.0704 29.1221 65.4586C29.0485 65.8482 29.0116 66.1952 29.0116 66.5041C29.0116 67.2081 29.2213 67.7988 29.6392 68.2762C30.0571 68.7536 30.7144 68.9916 31.6097 68.9916C32.3732 68.9916 33.1099 68.7168 33.8224 68.1657C34.1242 67.932 34.4103 67.6019 34.6823 67.1769C34.7801 67.6558 34.9685 68.0411 35.2532 68.3301C35.6853 68.7706 36.2548 68.9902 36.9588 68.9902C37.7946 68.9902 38.6389 68.7083 39.4903 68.1431C39.7637 67.9617 40.0201 67.728 40.2609 67.4419C40.2751 67.4702 40.2893 67.4985 40.3034 67.5268C40.5386 67.9603 40.8984 68.3117 41.3815 68.5836C41.8659 68.8556 42.4595 68.9902 43.165 68.9902C43.7954 68.9902 44.4229 68.884 45.0462 68.6715C45.6695 68.459 46.1937 68.1247 46.6201 67.6699C47.4191 67.2124 48.15 66.6896 48.8116 66.1046L47.0592 74.3606L50.3826 73.5687L51.5272 68.1983C51.836 68.7267 52.4593 68.9902 53.3986 68.9902C54.7188 68.9902 55.7827 68.5766 56.5902 67.7464C57.3977 66.9177 57.9685 65.9119 58.3071 64.7305C58.6443 63.549 58.8128 62.3789 58.8128 61.2201C58.8128 59.9876 58.5706 59.0994 58.0861 58.5569C57.6045 58.0143 56.9514 57.7423 56.1298 57.7423ZM43.8265 66.7661C43.4596 67.0891 43.0049 67.2506 42.4623 67.2506C41.992 67.2506 41.652 67.1259 41.4395 66.8766C41.2724 66.6811 41.1718 66.3992 41.1364 66.0323C41.1647 65.9714 41.1931 65.9091 41.22 65.8468C41.3276 65.9459 41.492 65.9969 41.7144 65.9969C41.9934 65.9969 42.2243 65.8864 42.4071 65.6668C42.5898 65.4473 42.6819 65.1979 42.6819 64.9189C42.6819 64.5817 42.5133 64.3253 42.1762 64.1482C43.012 62.5347 43.607 61.1479 43.9597 59.9891C44.0036 60.5614 44.0985 61.6833 44.2458 63.3563C44.3337 64.1482 44.3776 64.7645 44.3776 65.205C44.3776 65.9232 44.1934 66.4431 43.8265 66.7661ZM55.481 63.7176C55.2685 64.6341 54.9313 65.4232 54.4681 66.0833C54.0063 66.7435 53.4226 67.0735 52.7186 67.0735C52.278 67.0735 51.9989 66.905 51.8828 66.5678L53.1818 60.4055C53.3872 60.0684 53.6252 59.8035 53.8972 59.6137C54.1692 59.4224 54.4369 59.3275 54.7004 59.3275C55.4342 59.3275 55.8011 59.9367 55.8011 61.1549C55.7997 61.9468 55.6935 62.801 55.481 63.7176Z" fill="white"/>
<path d="M75.9723 58.3359C75.7003 58.0129 75.3306 57.8514 74.8602 57.8514C74.3899 57.8514 73.9536 57.969 73.5513 58.2041C73.1476 58.4393 72.6957 58.7765 72.197 59.217L72.4832 57.8528H69.3142L67.8155 64.9203C67.1411 65.6668 66.5221 66.225 65.9569 66.5905C65.3916 66.9574 64.7131 67.1401 63.9212 67.1401C63.363 67.1401 62.9593 67.0112 62.71 66.7548C62.4607 66.4984 62.336 66.0097 62.336 65.2914C62.336 65.1455 62.3502 64.8509 62.3799 64.4103C63.2611 64.3522 64.0898 64.1128 64.8675 63.6949C65.6452 63.277 66.2685 62.7231 66.7388 62.0332C67.2077 61.3433 67.4429 60.5883 67.4429 59.7667C67.4429 58.3585 66.6354 57.6531 65.0219 57.6531C63.6421 57.6531 62.5046 58.0965 61.6107 58.9847C60.7154 59.8729 60.0694 60.9254 59.6742 62.1437C59.2775 63.362 59.0792 64.4769 59.0792 65.4898C59.0792 66.6925 59.3795 67.5778 59.9816 68.1417C60.5837 68.7069 61.4265 68.9888 62.5131 68.9888C64.4156 68.9888 66.0759 68.1388 67.4925 66.4403L66.9796 68.8556H70.1486L71.9094 60.492C72.2466 60.1831 72.5214 59.9678 72.7353 59.8432C72.9478 59.7185 73.2085 59.6562 73.5173 59.6562C73.6349 59.6562 73.7156 59.7001 73.7595 59.7879C73.8035 59.8757 73.8474 60.016 73.8913 60.2058C73.9494 60.499 74.0344 60.7229 74.1449 60.8773C74.2554 61.0317 74.4707 61.1082 74.7937 61.1082C75.2923 61.1082 75.6819 60.9467 75.9595 60.6237C76.2386 60.3007 76.3774 59.9267 76.3774 59.5018C76.3789 59.0484 76.2429 58.6589 75.9723 58.3359ZM63.6464 60.2072C64.1521 59.2822 64.6692 58.8204 65.1976 58.8204C65.5645 58.8204 65.7472 59.1207 65.7472 59.7227C65.7472 60.3248 65.597 60.8971 65.2967 61.4397C64.9964 61.9822 64.5998 62.4299 64.1082 62.7826C63.6166 63.1354 63.0996 63.3252 62.557 63.3549C62.7766 62.1806 63.1406 61.1323 63.6464 60.2072Z" fill="white"/>
</svg>
